<svg xmlns="http://www.w3.org/2000/svg" width="629" height="352" fill="none" viewBox="0 0 629 352"><g filter="url(#filter0_d_7_2)"><rect width="621" height="344" x="4" fill="url(#paint0_linear_7_2)" rx="24"/><path fill="#fff" d="M123.19 184.438C123.19 185.166 122.938 185.782 122.434 186.286C121.958 186.762 121.356 187 120.628 187C119.928 187 119.34 186.762 118.864 186.286C118.388 185.782 118.15 185.166 118.15 184.438V158.482C118.15 157.754 118.388 157.152 118.864 156.676C119.368 156.172 119.984 155.92 120.712 155.92C121.412 155.92 122 156.172 122.476 156.676C122.952 157.152 123.19 157.754 123.19 158.482V184.438ZM150.228 175.786C150.228 178.026 149.724 180.042 148.716 181.834C147.708 183.598 146.322 184.97 144.558 185.95C142.822 186.93 140.904 187.42 138.804 187.42C136.676 187.42 134.744 186.93 133.008 185.95C131.272 184.97 129.9 183.598 128.892 181.834C127.884 180.042 127.38 178.026 127.38 175.786C127.38 173.546 127.884 171.544 128.892 169.78C129.9 167.988 131.272 166.602 133.008 165.622C134.744 164.614 136.676 164.11 138.804 164.11C140.904 164.11 142.822 164.614 144.558 165.622C146.322 166.602 147.708 167.988 148.716 169.78C149.724 171.544 150.228 173.546 150.228 175.786ZM145.188 175.786C145.188 174.414 144.894 173.196 144.306 172.132C143.746 171.04 142.976 170.2 141.996 169.612C141.044 169.024 139.98 168.73 138.804 168.73C137.628 168.73 136.55 169.024 135.57 169.612C134.618 170.2 133.848 171.04 133.26 172.132C132.7 173.196 132.42 174.414 132.42 175.786C132.42 177.158 132.7 178.376 133.26 179.44C133.848 180.504 134.618 181.33 135.57 181.918C136.55 182.506 137.628 182.8 138.804 182.8C139.98 182.8 141.044 182.506 141.996 181.918C142.976 181.33 143.746 180.504 144.306 179.44C144.894 178.376 145.188 177.158 145.188 175.786ZM164.225 164.11C166.605 164.11 168.523 164.488 169.979 165.244C171.435 165.972 172.163 166.952 172.163 168.184C172.163 168.8 171.981 169.346 171.617 169.822C171.253 170.27 170.777 170.494 170.189 170.494C169.741 170.494 169.377 170.438 169.097 170.326C168.817 170.186 168.537 170.018 168.257 169.822C168.005 169.598 167.753 169.416 167.501 169.276C167.221 169.136 166.801 169.01 166.241 168.898C165.709 168.786 165.275 168.73 164.939 168.73C162.839 168.73 161.187 169.388 159.983 170.704C158.807 171.992 158.219 173.686 158.219 175.786C158.219 177.802 158.821 179.482 160.025 180.826C161.229 182.142 162.769 182.8 164.645 182.8C166.017 182.8 167.039 182.632 167.711 182.296C167.879 182.212 168.103 182.072 168.383 181.876C168.691 181.652 168.971 181.484 169.223 181.372C169.475 181.26 169.783 181.204 170.147 181.204C170.847 181.204 171.393 181.428 171.785 181.876C172.205 182.324 172.415 182.898 172.415 183.598C172.415 184.27 172.023 184.9 171.239 185.488C170.455 186.076 169.419 186.552 168.131 186.916C166.843 187.252 165.471 187.42 164.015 187.42C161.859 187.42 159.955 186.916 158.303 185.908C156.679 184.9 155.419 183.514 154.523 181.75C153.627 179.958 153.179 177.97 153.179 175.786C153.179 173.518 153.641 171.502 154.565 169.738C155.517 167.974 156.833 166.602 158.513 165.622C160.193 164.614 162.097 164.11 164.225 164.11ZM194.24 164.11C194.968 164.11 195.57 164.348 196.046 164.824C196.522 165.3 196.76 165.916 196.76 166.672V184.438C196.76 185.166 196.522 185.782 196.046 186.286C195.57 186.762 194.968 187 194.24 187C193.512 187 192.91 186.762 192.434 186.286C191.986 185.81 191.748 185.208 191.72 184.48C191.02 185.292 190.068 185.992 188.864 186.58C187.688 187.14 186.442 187.42 185.126 187.42C183.194 187.42 181.444 186.93 179.876 185.95C178.308 184.942 177.062 183.556 176.138 181.792C175.242 180.028 174.794 178.026 174.794 175.786C174.794 173.546 175.242 171.544 176.138 169.78C177.034 167.988 178.252 166.602 179.792 165.622C181.36 164.614 183.082 164.11 184.958 164.11C186.302 164.11 187.562 164.362 188.738 164.866C189.914 165.342 190.908 165.958 191.72 166.714V166.672C191.72 165.944 191.958 165.342 192.434 164.866C192.91 164.362 193.512 164.11 194.24 164.11ZM185.756 182.8C187.576 182.8 189.06 182.142 190.208 180.826C191.356 179.482 191.93 177.802 191.93 175.786C191.93 173.77 191.356 172.09 190.208 170.746C189.06 169.402 187.576 168.73 185.756 168.73C183.964 168.73 182.494 169.402 181.346 170.746C180.198 172.09 179.624 173.77 179.624 175.786C179.624 177.802 180.184 179.482 181.304 180.826C182.452 182.142 183.936 182.8 185.756 182.8ZM207.682 184.438C207.682 185.166 207.43 185.782 206.926 186.286C206.45 186.762 205.848 187 205.12 187C204.42 187 203.832 186.762 203.356 186.286C202.88 185.782 202.642 185.166 202.642 184.438V158.482C202.642 157.754 202.88 157.152 203.356 156.676C203.86 156.172 204.476 155.92 205.204 155.92C205.904 155.92 206.492 156.172 206.968 156.676C207.444 157.152 207.682 157.754 207.682 158.482V184.438ZM225.345 164.11C228.117 164.11 230.035 164.964 231.099 166.672C232.163 168.352 232.695 170.69 232.695 173.686V184.438C232.695 185.166 232.457 185.782 231.981 186.286C231.505 186.762 230.903 187 230.175 187C229.447 187 228.845 186.762 228.369 186.286C227.893 185.782 227.655 185.166 227.655 184.438V173.686C227.655 172.146 227.347 170.942 226.731 170.074C226.143 169.178 225.093 168.73 223.581 168.73C222.013 168.73 220.781 169.206 219.885 170.158C219.017 171.082 218.583 172.258 218.583 173.686V184.438C218.583 185.166 218.345 185.782 217.869 186.286C217.393 186.762 216.791 187 216.062 187C215.335 187 214.733 186.762 214.257 186.286C213.781 185.782 213.543 185.166 213.543 184.438V158.482C213.543 157.754 213.781 157.152 214.257 156.676C214.733 156.172 215.335 155.92 216.062 155.92C216.791 155.92 217.393 156.172 217.869 156.676C218.345 157.152 218.583 157.754 218.583 158.482V167.764C219.339 166.756 220.291 165.902 221.439 165.202C222.615 164.474 223.917 164.11 225.345 164.11ZM256.338 164.11C257.066 164.11 257.668 164.348 258.144 164.824C258.62 165.3 258.858 165.916 258.858 166.672V184.438C258.858 185.166 258.62 185.782 258.144 186.286C257.668 186.762 257.066 187 256.338 187C255.61 187 255.008 186.762 254.532 186.286C254.084 185.81 253.846 185.208 253.818 184.48C253.118 185.292 252.166 185.992 250.962 186.58C249.786 187.14 248.54 187.42 247.224 187.42C245.292 187.42 243.542 186.93 241.974 185.95C240.406 184.942 239.16 183.556 238.236 181.792C237.34 180.028 236.892 178.026 236.892 175.786C236.892 173.546 237.34 171.544 238.236 169.78C239.132 167.988 240.35 166.602 241.89 165.622C243.458 164.614 245.18 164.11 247.056 164.11C248.4 164.11 249.66 164.362 250.836 164.866C252.012 165.342 253.006 165.958 253.818 166.714V166.672C253.818 165.944 254.056 165.342 254.532 164.866C255.008 164.362 255.61 164.11 256.338 164.11ZM247.854 182.8C249.674 182.8 251.158 182.142 252.306 180.826C253.454 179.482 254.028 177.802 254.028 175.786C254.028 173.77 253.454 172.09 252.306 170.746C251.158 169.402 249.674 168.73 247.854 168.73C246.062 168.73 244.592 169.402 243.444 170.746C242.296 172.09 241.722 173.77 241.722 175.786C241.722 177.802 242.282 179.482 243.402 180.826C244.55 182.142 246.034 182.8 247.854 182.8ZM274.106 164.11C276.486 164.11 278.404 164.488 279.86 165.244C281.316 165.972 282.044 166.952 282.044 168.184C282.044 168.8 281.862 169.346 281.498 169.822C281.134 170.27 280.658 170.494 280.07 170.494C279.622 170.494 279.258 170.438 278.978 170.326C278.698 170.186 278.418 170.018 278.138 169.822C277.886 169.598 277.634 169.416 277.382 169.276C277.102 169.136 276.682 169.01 276.122 168.898C275.59 168.786 275.156 168.73 274.82 168.73C272.72 168.73 271.068 169.388 269.864 170.704C268.688 171.992 268.1 173.686 268.1 175.786C268.1 177.802 268.702 179.482 269.906 180.826C271.11 182.142 272.65 182.8 274.526 182.8C275.898 182.8 276.92 182.632 277.592 182.296C277.76 182.212 277.984 182.072 278.264 181.876C278.572 181.652 278.852 181.484 279.104 181.372C279.356 181.26 279.664 181.204 280.028 181.204C280.728 181.204 281.274 181.428 281.666 181.876C282.086 182.324 282.296 182.898 282.296 183.598C282.296 184.27 281.904 184.9 281.12 185.488C280.336 186.076 279.3 186.552 278.012 186.916C276.724 187.252 275.352 187.42 273.896 187.42C271.74 187.42 269.836 186.916 268.184 185.908C266.56 184.9 265.3 183.514 264.404 181.75C263.508 179.958 263.06 177.97 263.06 175.786C263.06 173.518 263.522 171.502 264.446 169.738C265.398 167.974 266.714 166.602 268.394 165.622C270.074 164.614 271.978 164.11 274.106 164.11ZM304.625 182.59C305.157 183.15 305.423 183.78 305.423 184.48C305.423 185.18 305.143 185.768 304.583 186.244C304.051 186.72 303.477 186.958 302.861 186.958C302.133 186.958 301.517 186.678 301.013 186.118L293.453 178.138L291.395 180.028V184.438C291.395 185.166 291.157 185.782 290.681 186.286C290.205 186.762 289.603 187 288.875 187C288.147 187 287.545 186.762 287.069 186.286C286.593 185.782 286.355 185.166 286.355 184.438V158.482C286.355 157.754 286.593 157.152 287.069 156.676C287.545 156.172 288.147 155.92 288.875 155.92C289.603 155.92 290.205 156.172 290.681 156.676C291.157 157.152 291.395 157.754 291.395 158.482V174.022L300.383 165.328C300.915 164.796 301.531 164.53 302.231 164.53C302.847 164.53 303.393 164.796 303.869 165.328C304.373 165.832 304.625 166.35 304.625 166.882C304.625 167.554 304.289 168.184 303.617 168.772L297.275 174.61L304.625 182.59ZM327.09 155.92C327.818 155.92 328.42 156.158 328.896 156.634C329.372 157.11 329.61 157.726 329.61 158.482V184.438C329.61 185.166 329.372 185.782 328.896 186.286C328.42 186.762 327.818 187 327.09 187C326.362 187 325.76 186.762 325.284 186.286C324.836 185.81 324.598 185.208 324.57 184.48C323.87 185.292 322.918 185.992 321.714 186.58C320.538 187.14 319.292 187.42 317.976 187.42C316.044 187.42 314.294 186.93 312.726 185.95C311.158 184.942 309.912 183.556 308.988 181.792C308.092 180.028 307.644 178.026 307.644 175.786C307.644 173.546 308.092 171.544 308.988 169.78C309.884 167.988 311.102 166.602 312.642 165.622C314.21 164.614 315.932 164.11 317.808 164.11C319.152 164.11 320.412 164.362 321.588 164.866C322.764 165.342 323.758 165.958 324.57 166.714V158.482C324.57 157.754 324.808 157.152 325.284 156.676C325.76 156.172 326.362 155.92 327.09 155.92ZM318.606 182.8C320.426 182.8 321.91 182.142 323.058 180.826C324.206 179.482 324.78 177.802 324.78 175.786C324.78 173.77 324.206 172.09 323.058 170.746C321.91 169.402 320.426 168.73 318.606 168.73C316.814 168.73 315.344 169.402 314.196 170.746C313.048 172.09 312.474 173.77 312.474 175.786C312.474 177.802 313.034 179.482 314.154 180.826C315.302 182.142 316.786 182.8 318.606 182.8ZM353.258 164.11C353.986 164.11 354.588 164.348 355.064 164.824C355.54 165.3 355.778 165.916 355.778 166.672V184.438C355.778 185.166 355.54 185.782 355.064 186.286C354.588 186.762 353.986 187 353.258 187C352.53 187 351.928 186.762 351.452 186.286C351.004 185.81 350.766 185.208 350.738 184.48C350.038 185.292 349.086 185.992 347.882 186.58C346.706 187.14 345.46 187.42 344.144 187.42C342.212 187.42 340.462 186.93 338.894 185.95C337.326 184.942 336.08 183.556 335.156 181.792C334.26 180.028 333.812 178.026 333.812 175.786C333.812 173.546 334.26 171.544 335.156 169.78C336.052 167.988 337.27 166.602 338.81 165.622C340.378 164.614 342.1 164.11 343.976 164.11C345.32 164.11 346.58 164.362 347.756 164.866C348.932 165.342 349.926 165.958 350.738 166.714V166.672C350.738 165.944 350.976 165.342 351.452 164.866C351.928 164.362 352.53 164.11 353.258 164.11ZM344.774 182.8C346.594 182.8 348.078 182.142 349.226 180.826C350.374 179.482 350.948 177.802 350.948 175.786C350.948 173.77 350.374 172.09 349.226 170.746C348.078 169.402 346.594 168.73 344.774 168.73C342.982 168.73 341.512 169.402 340.364 170.746C339.216 172.09 338.642 173.77 338.642 175.786C338.642 177.802 339.202 179.482 340.322 180.826C341.47 182.142 342.954 182.8 344.774 182.8ZM377.422 164.53C378.15 164.53 378.752 164.782 379.228 165.286C379.704 165.762 379.942 166.364 379.942 167.092V184.942C379.942 188.582 378.962 191.228 377.002 192.88C375.042 194.56 372.424 195.4 369.148 195.4C368.196 195.4 367.216 195.316 366.208 195.148C365.228 195.008 364.43 194.812 363.814 194.56C362.442 193.972 361.756 193.16 361.756 192.124C361.756 191.928 361.798 191.704 361.882 191.452C362.05 190.836 362.33 190.36 362.722 190.024C363.142 189.716 363.59 189.562 364.066 189.562C364.346 189.562 364.612 189.604 364.864 189.688C365.06 189.772 365.396 189.912 365.872 190.108C366.376 190.304 366.894 190.458 367.426 190.57C367.986 190.71 368.56 190.78 369.148 190.78C371.136 190.78 372.592 190.346 373.516 189.478C374.468 188.638 374.944 187.182 374.944 185.11V184.69C373.488 186.51 371.22 187.42 368.14 187.42C366.684 187.42 365.396 187.084 364.276 186.412C363.156 185.712 362.288 184.76 361.672 183.556C361.056 182.324 360.748 180.924 360.748 179.356V167.092C360.748 166.364 360.986 165.762 361.462 165.286C361.938 164.782 362.54 164.53 363.268 164.53C363.996 164.53 364.598 164.782 365.074 165.286C365.55 165.762 365.788 166.364 365.788 167.092V177.844C365.788 179.608 366.166 180.882 366.922 181.666C367.706 182.422 368.84 182.8 370.324 182.8C371.78 182.8 372.9 182.38 373.684 181.54C374.496 180.672 374.902 179.44 374.902 177.844V167.092C374.902 166.364 375.14 165.762 375.616 165.286C376.092 164.782 376.694 164.53 377.422 164.53ZM387.624 186.958C386.812 186.958 386.182 186.748 385.734 186.328C385.314 185.88 385.104 185.25 385.104 184.438V183.724C385.104 182.912 385.314 182.296 385.734 181.876C386.182 181.428 386.812 181.204 387.624 181.204H388.17C388.982 181.204 389.598 181.428 390.018 181.876C390.466 182.296 390.69 182.912 390.69 183.724V184.438C390.69 185.25 390.466 185.88 390.018 186.328C389.598 186.748 388.982 186.958 388.17 186.958H387.624ZM421.771 164.11C424.543 164.11 426.461 164.964 427.525 166.672C428.589 168.352 429.121 170.69 429.121 173.686V184.438C429.121 185.166 428.883 185.782 428.407 186.286C427.931 186.762 427.329 187 426.601 187C425.873 187 425.271 186.762 424.795 186.286C424.319 185.782 424.081 185.166 424.081 184.438V173.686C424.081 172.146 423.773 170.942 423.157 170.074C422.569 169.178 421.519 168.73 420.007 168.73C418.439 168.73 417.207 169.206 416.311 170.158C415.443 171.082 415.009 172.258 415.009 173.686V184.438C415.009 185.166 414.771 185.782 414.295 186.286C413.819 186.762 413.217 187 412.489 187C411.761 187 411.159 186.762 410.683 186.286C410.207 185.782 409.969 185.166 409.969 184.438V173.686C409.969 172.146 409.661 170.942 409.045 170.074C408.457 169.178 407.407 168.73 405.895 168.73C404.327 168.73 403.095 169.206 402.199 170.158C401.331 171.082 400.897 172.258 400.897 173.686V184.438C400.897 185.166 400.659 185.782 400.183 186.286C399.707 186.762 399.105 187 398.377 187C397.649 187 397.047 186.762 396.571 186.286C396.095 185.782 395.857 185.166 395.857 184.438V167.092C395.857 166.364 396.095 165.762 396.571 165.286C397.047 164.782 397.649 164.53 398.377 164.53C399.105 164.53 399.707 164.782 400.183 165.286C400.659 165.762 400.897 166.364 400.897 167.092V167.764C401.653 166.756 402.605 165.902 403.753 165.202C404.929 164.474 406.231 164.11 407.659 164.11C411.187 164.11 413.441 165.65 414.421 168.73C415.065 167.554 416.031 166.49 417.319 165.538C418.635 164.586 420.119 164.11 421.771 164.11ZM440.036 184.438C440.036 185.166 439.784 185.782 439.28 186.286C438.804 186.762 438.202 187 437.474 187C436.774 187 436.186 186.762 435.71 186.286C435.234 185.782 434.996 185.166 434.996 184.438V158.482C434.996 157.754 435.234 157.152 435.71 156.676C436.214 156.172 436.83 155.92 437.558 155.92C438.258 155.92 438.846 156.172 439.322 156.676C439.798 157.152 440.036 157.754 440.036 158.482V184.438ZM457.698 164.11C460.47 164.11 462.388 164.964 463.452 166.672C464.516 168.352 465.048 170.69 465.048 173.686V184.438C465.048 185.166 464.81 185.782 464.334 186.286C463.858 186.762 463.256 187 462.528 187C461.8 187 461.198 186.762 460.722 186.286C460.246 185.782 460.008 185.166 460.008 184.438V173.686C460.008 172.146 459.7 170.942 459.084 170.074C458.496 169.178 457.446 168.73 455.934 168.73C454.366 168.73 453.134 169.206 452.238 170.158C451.37 171.082 450.936 172.258 450.936 173.686V184.438C450.936 185.166 450.698 185.782 450.222 186.286C449.746 186.762 449.144 187 448.416 187C447.688 187 447.086 186.762 446.61 186.286C446.134 185.782 445.896 185.166 445.896 184.438V158.482C445.896 157.754 446.134 157.152 446.61 156.676C447.086 156.172 447.688 155.92 448.416 155.92C449.144 155.92 449.746 156.172 450.222 156.676C450.698 157.152 450.936 157.754 450.936 158.482V167.764C451.692 166.756 452.644 165.902 453.792 165.202C454.968 164.474 456.27 164.11 457.698 164.11ZM472.731 186.958C471.919 186.958 471.289 186.748 470.841 186.328C470.421 185.88 470.211 185.25 470.211 184.438V183.724C470.211 182.912 470.421 182.296 470.841 181.876C471.289 181.428 471.919 181.204 472.731 181.204H473.277C474.089 181.204 474.705 181.428 475.125 181.876C475.573 182.296 475.797 182.912 475.797 183.724V184.438C475.797 185.25 475.573 185.88 475.125 186.328C474.705 186.748 474.089 186.958 473.277 186.958H472.731ZM485.71 184.438C485.71 185.166 485.472 185.782 484.996 186.286C484.52 186.762 483.918 187 483.19 187C482.462 187 481.86 186.762 481.384 186.286C480.908 185.782 480.67 185.166 480.67 184.438V167.092C480.67 166.364 480.908 165.762 481.384 165.286C481.86 164.782 482.462 164.53 483.19 164.53C483.918 164.53 484.52 164.782 484.996 165.286C485.472 165.762 485.71 166.364 485.71 167.092V184.438ZM483.148 161.8C482.196 161.8 481.524 161.646 481.132 161.338C480.74 161.03 480.544 160.484 480.544 159.7V158.902C480.544 158.118 480.754 157.572 481.174 157.264C481.594 156.956 482.266 156.802 483.19 156.802C484.17 156.802 484.856 156.956 485.248 157.264C485.64 157.572 485.836 158.118 485.836 158.902V159.7C485.836 160.512 485.626 161.072 485.206 161.38C484.814 161.66 484.128 161.8 483.148 161.8ZM512.478 175.786C512.478 178.026 511.974 180.042 510.966 181.834C509.958 183.598 508.572 184.97 506.808 185.95C505.072 186.93 503.154 187.42 501.054 187.42C498.926 187.42 496.994 186.93 495.258 185.95C493.522 184.97 492.15 183.598 491.142 181.834C490.134 180.042 489.63 178.026 489.63 175.786C489.63 173.546 490.134 171.544 491.142 169.78C492.15 167.988 493.522 166.602 495.258 165.622C496.994 164.614 498.926 164.11 501.054 164.11C503.154 164.11 505.072 164.614 506.808 165.622C508.572 166.602 509.958 167.988 510.966 169.78C511.974 171.544 512.478 173.546 512.478 175.786ZM507.438 175.786C507.438 174.414 507.144 173.196 506.556 172.132C505.996 171.04 505.226 170.2 504.246 169.612C503.294 169.024 502.23 168.73 501.054 168.73C499.878 168.73 498.8 169.024 497.82 169.612C496.868 170.2 496.098 171.04 495.51 172.132C494.95 173.196 494.67 174.414 494.67 175.786C494.67 177.158 494.95 178.376 495.51 179.44C496.098 180.504 496.868 181.33 497.82 181.918C498.8 182.506 499.878 182.8 501.054 182.8C502.23 182.8 503.294 182.506 504.246 181.918C505.226 181.33 505.996 180.504 506.556 179.44C507.144 178.376 507.438 177.158 507.438 175.786Z"/></g><defs><filter id="filter0_d_7_2" width="629" height="352" x="0" y="0" color-interpolation-filters="sRGB" filterUnits="userSpaceOnUse"><feFlood flood-opacity="0" result="BackgroundImageFix"/><feColorMatrix in="SourceAlpha" result="hardAlpha" type="matrix" values="0 0 0 0 0 0 0 0 0 0 0 0 0 0 0 0 0 0 127 0"/><feOffset dy="4"/><feGaussianBlur stdDeviation="2"/><feComposite in2="hardAlpha" operator="out"/><feColorMatrix type="matrix" values="0 0 0 0 0 0 0 0 0 0 0 0 0 0 0 0 0 0 0.25 0"/><feBlend in2="BackgroundImageFix" mode="normal" result="effect1_dropShadow_7_2"/><feBlend in="SourceGraphic" in2="effect1_dropShadow_7_2" mode="normal" result="shape"/></filter><linearGradient id="paint0_linear_7_2" x1="-23.5" x2="608.5" y1="129" y2="133.5" gradientUnits="userSpaceOnUse"><stop stop-color="#4A00E0"/><stop offset="1" stop-color="#8E2DE2"/></linearGradient></defs></svg>